<svg xmlns="http://www.w3.org/2000/svg" viewBox="0 0 841 427"><svg width="407" height="427" viewBox="0 0 407 427" fill="none" xmlns="http://www.w3.org/2000/svg" x="0"><g clip-path="url(#clip0_15_52)"><g filter="url(#filter0_d_15_52)"><path d="M369.153 31H101.742C83.4584 31 67.878 44.8441 64.7778 63.6922L45.5407 181.701C41.6455 205.72 59.2928 227.654 82.5045 227.654H96.6541C96.6541 209.139 110.963 194.127 128.61 194.127C146.257 194.127 160.566 209.139 160.566 227.654H291.172C291.172 209.139 305.48 194.127 323.127 194.127C340.775 194.127 355.083 209.139 355.083 227.654H369.233C389.98 227.654 406.753 210.056 406.753 188.289V70.3641C406.674 48.5971 389.901 31 369.153 31ZM324.956 75.2846C324.956 69.4467 329.407 64.7764 334.972 64.7764H358.183C363.748 64.7764 368.199 69.5301 368.199 75.2846V127.742C368.199 133.58 363.668 138.25 358.183 138.25H334.972C329.407 138.25 324.956 133.497 324.956 127.742V75.2846ZM256.433 75.2846C256.433 69.4467 260.885 64.7764 266.449 64.7764H289.661C295.226 64.7764 299.677 69.5301 299.677 75.2846V127.742C299.677 133.58 295.146 138.25 289.661 138.25H266.449C260.885 138.25 256.433 133.497 256.433 127.742V75.2846ZM187.991 75.2846C187.991 69.4467 192.522 64.7764 198.007 64.7764H221.218C226.783 64.7764 231.234 69.5301 231.234 75.2846V127.742C231.234 133.58 226.703 138.25 221.218 138.25H198.007C192.442 138.25 187.991 133.497 187.991 127.742V75.2846ZM146.257 158.349C143.952 172.694 131.074 183.286 115.971 183.286H82.5045C80.4377 183.286 79.1659 182.285 78.3709 181.451C77.6555 180.617 76.8606 179.199 77.1785 177.281L96.4952 69.0297C96.9721 66.5277 99.1979 64.693 101.742 64.693H161.52L146.257 158.349ZM368.279 178.282H187.991C184.89 178.282 182.426 175.696 182.426 172.444C182.426 169.191 184.89 166.606 187.991 166.606H368.279C371.379 166.606 373.843 169.191 373.843 172.444C373.843 175.613 371.3 178.282 368.279 178.282Z" fill="black" /></g><g filter="url(#filter1_d_15_52)"><path d="M128.61 205.803C117.084 205.803 107.783 215.561 107.783 227.653C107.783 239.746 117.084 249.504 128.61 249.504C140.136 249.504 149.437 239.746 149.437 227.653C149.437 215.561 140.057 205.803 128.61 205.803Z" fill="black" /></g><g filter="url(#filter2_d_15_52)"><path d="M323.048 205.803C311.521 205.803 302.221 215.561 302.221 227.653C302.221 239.746 311.521 249.504 323.048 249.504C334.574 249.504 343.875 239.746 343.875 227.653C343.875 215.561 334.574 205.803 323.048 205.803Z" fill="black" /></g></g><defs><filter id="filter0_d_15_52" x="41" y="31" width="369.753" height="204.654" filterUnits="userSpaceOnUse" color-interpolation-filters="sRGB"><feFlood flood-opacity="0" result="BackgroundImageFix" /><feColorMatrix in="SourceAlpha" type="matrix" values="0 0 0 0 0 0 0 0 0 0 0 0 0 0 0 0 0 0 127 0" result="hardAlpha" /><feOffset dy="4" /><feGaussianBlur stdDeviation="2" /><feComposite in2="hardAlpha" operator="out" /><feColorMatrix type="matrix" values="0 0 0 0 0 0 0 0 0 0 0 0 0 0 0 0 0 0 0.25 0" /><feBlend mode="normal" in2="BackgroundImageFix" result="effect1_dropShadow_15_52" /><feBlend mode="normal" in="SourceGraphic" in2="effect1_dropShadow_15_52" result="shape" /></filter><filter id="filter1_d_15_52" x="103.783" y="205.803" width="49.6539" height="51.7008" filterUnits="userSpaceOnUse" color-interpolation-filters="sRGB"><feFlood flood-opacity="0" result="BackgroundImageFix" /><feColorMatrix in="SourceAlpha" type="matrix" values="0 0 0 0 0 0 0 0 0 0 0 0 0 0 0 0 0 0 127 0" result="hardAlpha" /><feOffset dy="4" /><feGaussianBlur stdDeviation="2" /><feComposite in2="hardAlpha" operator="out" /><feColorMatrix type="matrix" values="0 0 0 0 0 0 0 0 0 0 0 0 0 0 0 0 0 0 0.25 0" /><feBlend mode="normal" in2="BackgroundImageFix" result="effect1_dropShadow_15_52" /><feBlend mode="normal" in="SourceGraphic" in2="effect1_dropShadow_15_52" result="shape" /></filter><filter id="filter2_d_15_52" x="298.221" y="205.803" width="49.6539" height="51.7008" filterUnits="userSpaceOnUse" color-interpolation-filters="sRGB"><feFlood flood-opacity="0" result="BackgroundImageFix" /><feColorMatrix in="SourceAlpha" type="matrix" values="0 0 0 0 0 0 0 0 0 0 0 0 0 0 0 0 0 0 127 0" result="hardAlpha" /><feOffset dy="4" /><feGaussianBlur stdDeviation="2" /><feComposite in2="hardAlpha" operator="out" /><feColorMatrix type="matrix" values="0 0 0 0 0 0 0 0 0 0 0 0 0 0 0 0 0 0 0.25 0" /><feBlend mode="normal" in2="BackgroundImageFix" result="effect1_dropShadow_15_52" /><feBlend mode="normal" in="SourceGraphic" in2="effect1_dropShadow_15_52" result="shape" /></filter><clipPath id="clip0_15_52"><rect width="407" height="427" fill="white" /></clipPath></defs></svg><svg width="434" height="427" viewBox="0 0 434 427" fill="none" xmlns="http://www.w3.org/2000/svg" x="407"><g clip-path="url(#clip0_15_42)"><g filter="url(#filter0_d_15_42)"><path d="M40.3574 31H325.509C345.005 31 361.619 44.8441 364.925 63.6922L385.438 181.701C389.592 205.72 370.774 227.654 346.022 227.654H330.934C330.934 209.139 315.676 194.127 296.858 194.127C278.04 194.127 262.782 209.139 262.782 227.654H123.512C123.512 209.139 108.255 194.127 89.4367 194.127C70.6187 194.127 55.3609 209.139 55.3609 227.654H40.2726C18.1488 227.654 0.263214 210.056 0.263214 188.289V70.3641C0.347992 48.5971 18.2336 31 40.3574 31ZM87.4871 75.2846C87.4871 69.4467 82.7402 64.7764 76.8066 64.7764H52.055C46.1214 64.7764 41.3745 69.5301 41.3745 75.2846V127.742C41.3745 133.58 46.2062 138.25 52.055 138.25H76.8066C82.7402 138.25 87.4871 133.497 87.4871 127.742V75.2846ZM160.555 75.2846C160.555 69.4467 155.808 64.7764 149.875 64.7764H125.123C119.189 64.7764 114.443 69.5301 114.443 75.2846V127.742C114.443 133.58 119.274 138.25 125.123 138.25H149.875C155.808 138.25 160.555 133.497 160.555 127.742V75.2846ZM233.538 75.2846C233.538 69.4467 228.707 64.7764 222.858 64.7764H198.106C192.173 64.7764 187.426 69.5301 187.426 75.2846V127.742C187.426 133.58 192.257 138.25 198.106 138.25H222.858C228.791 138.25 233.538 133.497 233.538 127.742V75.2846ZM278.04 158.349C280.498 172.694 294.23 183.286 310.336 183.286H346.022C348.226 183.286 349.582 182.285 350.43 181.451C351.193 180.617 352.041 179.199 351.702 177.281L331.103 69.0297C330.595 66.5277 328.221 64.693 325.509 64.693H261.765L278.04 158.349ZM41.2898 178.282H233.538C236.844 178.282 239.472 175.696 239.472 172.444C239.472 169.191 236.844 166.606 233.538 166.606H41.2898C37.9839 166.606 35.3562 169.191 35.3562 172.444C35.3562 175.613 38.0687 178.282 41.2898 178.282Z" fill="black" /></g><g filter="url(#filter1_d_15_42)"><path d="M296.858 205.803C309.149 205.803 319.067 215.561 319.067 227.653C319.067 239.746 309.149 249.504 296.858 249.504C284.567 249.504 274.65 239.746 274.65 227.653C274.65 215.561 284.652 205.803 296.858 205.803Z" fill="black" /></g><g filter="url(#filter2_d_15_42)"><path d="M89.5215 205.803C101.812 205.803 111.73 215.561 111.73 227.653C111.73 239.746 101.812 249.504 89.5215 249.504C77.2304 249.504 67.3129 239.746 67.3129 227.653C67.3129 215.561 77.2304 205.803 89.5215 205.803Z" fill="black" /></g></g><defs><filter id="filter0_d_15_42" x="-3.73679" y="31" width="393.752" height="204.654" filterUnits="userSpaceOnUse" color-interpolation-filters="sRGB"><feFlood flood-opacity="0" result="BackgroundImageFix" /><feColorMatrix in="SourceAlpha" type="matrix" values="0 0 0 0 0 0 0 0 0 0 0 0 0 0 0 0 0 0 127 0" result="hardAlpha" /><feOffset dy="4" /><feGaussianBlur stdDeviation="2" /><feComposite in2="hardAlpha" operator="out" /><feColorMatrix type="matrix" values="0 0 0 0 0 0 0 0 0 0 0 0 0 0 0 0 0 0 0.25 0" /><feBlend mode="normal" in2="BackgroundImageFix" result="effect1_dropShadow_15_42" /><feBlend mode="normal" in="SourceGraphic" in2="effect1_dropShadow_15_42" result="shape" /></filter><filter id="filter1_d_15_42" x="270.65" y="205.803" width="52.4172" height="51.7008" filterUnits="userSpaceOnUse" color-interpolation-filters="sRGB"><feFlood flood-opacity="0" result="BackgroundImageFix" /><feColorMatrix in="SourceAlpha" type="matrix" values="0 0 0 0 0 0 0 0 0 0 0 0 0 0 0 0 0 0 127 0" result="hardAlpha" /><feOffset dy="4" /><feGaussianBlur stdDeviation="2" /><feComposite in2="hardAlpha" operator="out" /><feColorMatrix type="matrix" values="0 0 0 0 0 0 0 0 0 0 0 0 0 0 0 0 0 0 0.25 0" /><feBlend mode="normal" in2="BackgroundImageFix" result="effect1_dropShadow_15_42" /><feBlend mode="normal" in="SourceGraphic" in2="effect1_dropShadow_15_42" result="shape" /></filter><filter id="filter2_d_15_42" x="63.3129" y="205.803" width="52.4172" height="51.7008" filterUnits="userSpaceOnUse" color-interpolation-filters="sRGB"><feFlood flood-opacity="0" result="BackgroundImageFix" /><feColorMatrix in="SourceAlpha" type="matrix" values="0 0 0 0 0 0 0 0 0 0 0 0 0 0 0 0 0 0 127 0" result="hardAlpha" /><feOffset dy="4" /><feGaussianBlur stdDeviation="2" /><feComposite in2="hardAlpha" operator="out" /><feColorMatrix type="matrix" values="0 0 0 0 0 0 0 0 0 0 0 0 0 0 0 0 0 0 0.25 0" /><feBlend mode="normal" in2="BackgroundImageFix" result="effect1_dropShadow_15_42" /><feBlend mode="normal" in="SourceGraphic" in2="effect1_dropShadow_15_42" result="shape" /></filter><clipPath id="clip0_15_42"><rect width="434" height="427" fill="white" transform="matrix(-1 0 0 1 434 0)" /></clipPath></defs></svg></svg>