<svg width="56" height="53" viewBox="0 0 56 53" fill="none" xmlns="http://www.w3.org/2000/svg">
<path d="M13.0988 16.5643C6.94965 17.8721 3.87505 18.526 3.14355 20.7372C2.41206 22.9482 4.50813 25.2524 8.70025 29.8603L9.7848 31.0525C10.9761 32.3619 11.5717 33.0166 11.8396 33.8266C12.1076 34.6367 12.0176 35.5102 11.8374 37.2574L11.6735 38.8479C11.0397 44.996 10.7228 48.07 12.6379 49.4365C14.5529 50.8031 17.4317 49.5571 23.1892 47.0654L24.6787 46.4205C26.3147 45.7125 27.1327 45.3583 28 45.3583C28.8672 45.3583 29.6852 45.7125 31.3212 46.4205L32.8107 47.0654C38.5682 49.5571 41.447 50.8031 43.3622 49.4365C45.2772 48.07 44.9602 44.996 44.3265 38.8479M47.2997 29.8603C51.4919 25.2524 53.5879 22.9482 52.8564 20.7372C52.1249 18.526 49.0502 17.8721 42.9012 16.5643L41.3102 16.2259C39.5627 15.8543 38.6892 15.6685 37.9877 15.1679C37.286 14.6673 36.8362 13.9086 35.9362 12.3912L35.117 11.0097C31.9505 5.66989 30.3672 3 28 3C25.6327 3 24.0495 5.66991 20.8829 11.0097" stroke="black" stroke-width="5" stroke-linecap="round"/>
</svg>
