<svg width="60" height="64" viewBox="0 0 60 64" fill="none" xmlns="http://www.w3.org/2000/svg">
<path d="M23.0102 39.9131C20.7941 37.4384 17.7589 36.6171 15.4553 37.629L12.7901 34.6529C11.8399 33.5918 11.3648 33.0613 11.152 32.4884C10.9648 31.9844 10.916 31.4593 11.0125 30.9883C11.1222 30.4528 11.5079 30.0221 12.2793 29.1607L32.6645 6.39717C33.436 5.53569 33.8217 5.10503 34.3012 4.98252C34.7231 4.8747 35.1932 4.92936 35.6446 5.13834C36.1576 5.37595 36.6327 5.90648 37.5829 6.96752L40.2478 9.9433C39.3416 12.5157 40.0775 15.9054 42.2936 18.38C44.5097 20.8547 47.5446 21.6757 49.8482 20.6637L52.5131 23.6395C53.4633 24.7006 53.9384 25.2311 54.1511 25.804C54.3384 26.3081 54.3872 26.8329 54.2906 27.3041C54.181 27.8396 53.7953 28.2702 53.0238 29.1317L32.6386 51.8952C31.8672 52.7566 31.4815 53.1873 31.0019 53.3098C30.58 53.4175 30.1099 53.3631 29.6586 53.1541C29.1455 52.9164 28.6705 52.386 27.7202 51.3248L25.0557 48.3495C25.9619 45.7771 25.2263 42.3877 23.0102 39.9131Z" stroke="white" stroke-width="6" stroke-linecap="round" stroke-linejoin="round"/>
</svg>
