<svg width="53" height="53" viewBox="0 0 53 53" fill="none" xmlns="http://www.w3.org/2000/svg">
<path d="M14.7613 45.609H30.4957C31.8621 45.609 32.9801 44.491 32.9801 43.1246C32.9801 41.7582 31.8621 40.6402 30.4957 40.6402H16.7281L12.1527 21.8832C11.8215 20.5375 10.4758 19.73 9.15078 20.0613C7.80508 20.3925 6.99765 21.7382 7.3289 23.0632L12.3598 43.725C12.6082 44.8222 13.6227 45.609 14.7613 45.609Z" stroke="black" stroke-width="3" stroke-linecap="round" stroke-linejoin="round" stroke-dasharray="430 430"/>
<path d="M42.6484 50.9297C43.1039 50.9297 43.5801 50.8262 44.0149 50.6192C45.5676 49.8739 46.2094 48.0106 45.4434 46.4579L39.7707 34.8434C39.2531 33.7669 38.1559 33.0837 36.9758 33.0837H23.7879L22.0281 24.3469L25.7754 26.9348C26.1481 27.204 26.5828 27.3696 27.0383 27.4524L35.5473 28.8395C37.2449 29.1087 38.8391 27.97 39.1289 26.2723C39.3981 24.5747 38.2594 22.9805 36.5617 22.6907L28.7359 21.4071L19.2125 14.8235C18.1567 14.0989 16.7902 14.0782 15.7344 14.7821C14.6785 15.486 14.1402 16.7489 14.3887 17.9911L18.1774 36.7895C18.4672 38.2387 19.7508 39.2946 21.2414 39.2946H35.0297L39.8535 49.17C40.3918 50.288 41.4891 50.9297 42.6484 50.9297Z" stroke="black" stroke-width="3" stroke-linecap="round" stroke-linejoin="round" stroke-dasharray="714 714"/>
<path d="M11.2211 7.45312C11.2211 10.4344 13.6227 12.8359 16.6039 12.8359C19.5852 12.8359 21.9867 10.4344 21.9867 7.45312C21.9867 4.47188 19.5852 2.07031 16.6039 2.07031C13.6227 2.07031 11.2211 4.47188 11.2211 7.45312Z" stroke="black" stroke-width="3" stroke-linecap="round" stroke-linejoin="round" stroke-dasharray="164 164"/>
</svg>
