<svg xmlns="http://www.w3.org/2000/svg" viewBox="0 0 757 227"><svg width="366" height="227" viewBox="0 0 376 227" fill="none" xmlns="http://www.w3.org/2000/svg" x="0"><g filter="url(#filter0_d_15_53)"><path d="M328.153 0H60.7416C42.4584 0 26.878 13.8441 23.7778 32.6922L4.54066 150.701C0.645538 174.72 18.2928 196.654 41.5045 196.654H55.6541C55.6541 178.139 69.9627 163.127 87.61 163.127C105.257 163.127 119.566 178.139 119.566 196.654H250.172C250.172 178.139 264.48 163.127 282.127 163.127C299.775 163.127 314.083 178.139 314.083 196.654H328.233C348.98 196.654 365.753 179.056 365.753 157.289V39.3641C365.674 17.5971 348.901 0 328.153 0ZM283.956 44.2846C283.956 38.4467 288.407 33.7764 293.972 33.7764H317.183C322.748 33.7764 327.199 38.5301 327.199 44.2846V96.7422C327.199 102.58 322.668 107.25 317.183 107.25H293.972C288.407 107.25 283.956 102.497 283.956 96.7422V44.2846ZM215.433 44.2846C215.433 38.4467 219.885 33.7764 225.449 33.7764H248.661C254.226 33.7764 258.677 38.5301 258.677 44.2846V96.7422C258.677 102.58 254.146 107.25 248.661 107.25H225.449C219.885 107.25 215.433 102.497 215.433 96.7422V44.2846ZM146.991 44.2846C146.991 38.4467 151.522 33.7764 157.007 33.7764H180.218C185.783 33.7764 190.234 38.5301 190.234 44.2846V96.7422C190.234 102.58 185.703 107.25 180.218 107.25H157.007C151.442 107.25 146.991 102.497 146.991 96.7422V44.2846ZM105.257 127.349C102.952 141.694 90.0743 152.286 74.9707 152.286H41.5045C39.4377 152.286 38.1659 151.285 37.3709 150.451C36.6555 149.617 35.8606 148.199 36.1785 146.281L55.4952 38.0297C55.9721 35.5277 58.1979 33.693 60.7416 33.693H120.52L105.257 127.349ZM327.279 147.282H146.991C143.89 147.282 141.426 144.696 141.426 141.444C141.426 138.191 143.89 135.606 146.991 135.606H327.279C330.379 135.606 332.843 138.191 332.843 141.444C332.843 144.613 330.3 147.282 327.279 147.282Z" fill="black" /></g><g filter="url(#filter1_d_15_53)"><path d="M87.61 174.803C76.0836 174.803 66.783 184.561 66.783 196.653C66.783 208.746 76.0836 218.504 87.61 218.504C99.1364 218.504 108.437 208.746 108.437 196.653C108.437 184.561 99.0569 174.803 87.61 174.803Z" fill="black" /></g><g filter="url(#filter2_d_15_53)"><path d="M282.048 174.803C270.521 174.803 261.221 184.561 261.221 196.653C261.221 208.746 270.521 218.504 282.048 218.504C293.574 218.504 302.875 208.746 302.875 196.653C302.875 184.561 293.574 174.803 282.048 174.803Z" fill="black" /></g><defs><filter id="filter0_d_15_53" x="0" y="0" width="369.753" height="204.654" filterUnits="userSpaceOnUse" color-interpolation-filters="sRGB"><feFlood flood-opacity="0" result="BackgroundImageFix" /><feColorMatrix in="SourceAlpha" type="matrix" values="0 0 0 0 0 0 0 0 0 0 0 0 0 0 0 0 0 0 127 0" result="hardAlpha" /><feOffset dy="4" /><feGaussianBlur stdDeviation="2" /><feComposite in2="hardAlpha" operator="out" /><feColorMatrix type="matrix" values="0 0 0 0 0 0 0 0 0 0 0 0 0 0 0 0 0 0 0.25 0" /><feBlend mode="normal" in2="BackgroundImageFix" result="effect1_dropShadow_15_53" /><feBlend mode="normal" in="SourceGraphic" in2="effect1_dropShadow_15_53" result="shape" /></filter><filter id="filter1_d_15_53" x="62.783" y="174.803" width="49.6539" height="51.7008" filterUnits="userSpaceOnUse" color-interpolation-filters="sRGB"><feFlood flood-opacity="0" result="BackgroundImageFix" /><feColorMatrix in="SourceAlpha" type="matrix" values="0 0 0 0 0 0 0 0 0 0 0 0 0 0 0 0 0 0 127 0" result="hardAlpha" /><feOffset dy="4" /><feGaussianBlur stdDeviation="2" /><feComposite in2="hardAlpha" operator="out" /><feColorMatrix type="matrix" values="0 0 0 0 0 0 0 0 0 0 0 0 0 0 0 0 0 0 0.25 0" /><feBlend mode="normal" in2="BackgroundImageFix" result="effect1_dropShadow_15_53" /><feBlend mode="normal" in="SourceGraphic" in2="effect1_dropShadow_15_53" result="shape" /></filter><filter id="filter2_d_15_53" x="257.221" y="174.803" width="49.6539" height="51.7008" filterUnits="userSpaceOnUse" color-interpolation-filters="sRGB"><feFlood flood-opacity="0" result="BackgroundImageFix" /><feColorMatrix in="SourceAlpha" type="matrix" values="0 0 0 0 0 0 0 0 0 0 0 0 0 0 0 0 0 0 127 0" result="hardAlpha" /><feOffset dy="4" /><feGaussianBlur stdDeviation="2" /><feComposite in2="hardAlpha" operator="out" /><feColorMatrix type="matrix" values="0 0 0 0 0 0 0 0 0 0 0 0 0 0 0 0 0 0 0.25 0" /><feBlend mode="normal" in2="BackgroundImageFix" result="effect1_dropShadow_15_53" /><feBlend mode="normal" in="SourceGraphic" in2="effect1_dropShadow_15_53" result="shape" /></filter></defs></svg><svg width="391" height="227" viewBox="0 0 401 227" fill="none" xmlns="http://www.w3.org/2000/svg" x="366"><g filter="url(#filter0_d_15_43)"><path d="M40.3574 0H325.509C345.005 0 361.619 13.8441 364.925 32.6922L385.438 150.701C389.592 174.72 370.774 196.654 346.022 196.654H330.934C330.934 178.139 315.676 163.127 296.858 163.127C278.04 163.127 262.782 178.139 262.782 196.654H123.512C123.512 178.139 108.255 163.127 89.4367 163.127C70.6187 163.127 55.3609 178.139 55.3609 196.654H40.2726C18.1488 196.654 0.263219 179.056 0.263219 157.289V39.3641C0.347985 17.5971 18.2335 0 40.3574 0ZM87.487 44.2846C87.487 38.4467 82.7402 33.7764 76.8066 33.7764H52.055C46.1214 33.7764 41.3746 38.5301 41.3746 44.2846V96.7422C41.3746 102.58 46.2062 107.25 52.055 107.25H76.8066C82.7402 107.25 87.487 102.497 87.487 96.7422V44.2846ZM160.555 44.2846C160.555 38.4467 155.808 33.7764 149.875 33.7764H125.123C119.189 33.7764 114.443 38.5301 114.443 44.2846V96.7422C114.443 102.58 119.274 107.25 125.123 107.25H149.875C155.808 107.25 160.555 102.497 160.555 96.7422V44.2846ZM233.538 44.2846C233.538 38.4467 228.707 33.7764 222.858 33.7764H198.106C192.173 33.7764 187.426 38.5301 187.426 44.2846V96.7422C187.426 102.58 192.257 107.25 198.106 107.25H222.858C228.791 107.25 233.538 102.497 233.538 96.7422V44.2846ZM278.04 127.349C280.498 141.694 294.23 152.286 310.336 152.286H346.022C348.226 152.286 349.582 151.285 350.43 150.451C351.193 149.617 352.041 148.199 351.702 146.281L331.103 38.0297C330.595 35.5277 328.221 33.693 325.509 33.693H261.765L278.04 127.349ZM41.2898 147.282H233.538C236.844 147.282 239.472 144.696 239.472 141.444C239.472 138.191 236.844 135.606 233.538 135.606H41.2898C37.9839 135.606 35.3562 138.191 35.3562 141.444C35.3562 144.613 38.0687 147.282 41.2898 147.282Z" fill="black" /></g><g filter="url(#filter1_d_15_43)"><path d="M296.858 174.803C309.149 174.803 319.067 184.561 319.067 196.653C319.067 208.746 309.149 218.504 296.858 218.504C284.567 218.504 274.65 208.746 274.65 196.653C274.65 184.561 284.652 174.803 296.858 174.803Z" fill="black" /></g><g filter="url(#filter2_d_15_43)"><path d="M89.5215 174.803C101.812 174.803 111.73 184.561 111.73 196.653C111.73 208.746 101.812 218.504 89.5215 218.504C77.2304 218.504 67.3129 208.746 67.3129 196.653C67.3129 184.561 77.2304 174.803 89.5215 174.803Z" fill="black" /></g><defs><filter id="filter0_d_15_43" x="-3.73679" y="0" width="393.752" height="204.654" filterUnits="userSpaceOnUse" color-interpolation-filters="sRGB"><feFlood flood-opacity="0" result="BackgroundImageFix" /><feColorMatrix in="SourceAlpha" type="matrix" values="0 0 0 0 0 0 0 0 0 0 0 0 0 0 0 0 0 0 127 0" result="hardAlpha" /><feOffset dy="4" /><feGaussianBlur stdDeviation="2" /><feComposite in2="hardAlpha" operator="out" /><feColorMatrix type="matrix" values="0 0 0 0 0 0 0 0 0 0 0 0 0 0 0 0 0 0 0.25 0" /><feBlend mode="normal" in2="BackgroundImageFix" result="effect1_dropShadow_15_43" /><feBlend mode="normal" in="SourceGraphic" in2="effect1_dropShadow_15_43" result="shape" /></filter><filter id="filter1_d_15_43" x="270.65" y="174.803" width="52.4172" height="51.7008" filterUnits="userSpaceOnUse" color-interpolation-filters="sRGB"><feFlood flood-opacity="0" result="BackgroundImageFix" /><feColorMatrix in="SourceAlpha" type="matrix" values="0 0 0 0 0 0 0 0 0 0 0 0 0 0 0 0 0 0 127 0" result="hardAlpha" /><feOffset dy="4" /><feGaussianBlur stdDeviation="2" /><feComposite in2="hardAlpha" operator="out" /><feColorMatrix type="matrix" values="0 0 0 0 0 0 0 0 0 0 0 0 0 0 0 0 0 0 0.25 0" /><feBlend mode="normal" in2="BackgroundImageFix" result="effect1_dropShadow_15_43" /><feBlend mode="normal" in="SourceGraphic" in2="effect1_dropShadow_15_43" result="shape" /></filter><filter id="filter2_d_15_43" x="63.3129" y="174.803" width="52.4172" height="51.7008" filterUnits="userSpaceOnUse" color-interpolation-filters="sRGB"><feFlood flood-opacity="0" result="BackgroundImageFix" /><feColorMatrix in="SourceAlpha" type="matrix" values="0 0 0 0 0 0 0 0 0 0 0 0 0 0 0 0 0 0 127 0" result="hardAlpha" /><feOffset dy="4" /><feGaussianBlur stdDeviation="2" /><feComposite in2="hardAlpha" operator="out" /><feColorMatrix type="matrix" values="0 0 0 0 0 0 0 0 0 0 0 0 0 0 0 0 0 0 0.25 0" /><feBlend mode="normal" in2="BackgroundImageFix" result="effect1_dropShadow_15_43" /><feBlend mode="normal" in="SourceGraphic" in2="effect1_dropShadow_15_43" result="shape" /></filter></defs></svg></svg>