<svg width="53" height="52" viewBox="0 0 53 52" fill="none" xmlns="http://www.w3.org/2000/svg">
<g clip-path="url(#clip0_15_256)">
<path d="M24.5334 30.0633H28.495C29.6916 30.0633 30.6616 31.0334 30.6616 32.23C30.6616 33.4266 29.6916 34.3967 28.495 34.3967L20.2001 34.3967L16.7824 37.8143C21.246 40.8842 27.312 40.5134 31.177 36.6484C35.5512 32.2742 37.1058 14.4268 37.1058 14.4268C37.1058 14.4268 19.2583 15.9814 14.8842 20.3556C11.0192 24.2206 10.6484 30.2866 13.7182 34.7502L25.4331 23.0353C26.278 22.1904 27.6429 22.1856 28.495 23.0376C29.3411 23.8837 29.3415 25.2553 28.4973 26.0994L24.5334 30.0633ZM13.3577 41.239L11.64 42.9567C10.7951 43.8016 9.43017 43.8065 8.57814 42.9544C7.732 42.1083 7.73166 40.7368 8.57584 39.8926L10.2936 38.1749C5.39887 31.813 5.74803 22.7239 11.5003 16.9717C13.708 14.764 17.2216 13.2948 22.0426 12.0719C23.5199 11.6971 25.098 11.3564 26.7567 11.0466C29.0546 10.6175 31.3957 10.2672 33.6649 9.98821C34.4594 9.89055 35.1897 9.8086 35.841 9.74164C36.2388 9.70074 36.527 9.6735 36.6905 9.65926L42.3679 9.16473L41.8733 14.842C41.8591 15.0055 41.8318 15.2938 41.7909 15.6916C41.724 16.3429 41.642 17.0732 41.5444 17.8677C41.2654 20.1369 40.9151 22.478 40.486 24.7758C40.1762 26.4346 39.8354 28.0126 39.4607 29.4899C38.2378 34.311 36.7686 37.8246 34.5609 40.0323C28.8087 45.7846 19.7196 46.1337 13.3577 41.239Z" fill="black"/>
</g>
<defs>
<clipPath id="clip0_15_256">
<rect width="52" height="52" fill="white" transform="translate(0.5)"/>
</clipPath>
</defs>
</svg>
