<svg width="56" height="56" viewBox="0 0 56 56" fill="none" xmlns="http://www.w3.org/2000/svg">
<g clip-path="url(#clip0_15_229)">
<path fill-rule="evenodd" clip-rule="evenodd" d="M26.3615 5.12243C27.2858 4.7758 28.2928 4.73247 29.2377 4.99244L29.6385 5.12243L45.9718 11.2474C47.672 11.8849 48.8364 13.4442 48.9841 15.2309L49 15.617V28.13C49 35.8503 44.7665 42.9273 38.0123 46.5896L37.3914 46.9131L29.5652 50.8261C28.6893 51.2641 27.6757 51.3128 26.7692 50.9721L26.4348 50.8261L18.6085 46.9131C11.7033 43.4603 7.26662 36.5088 7.01162 28.83L7 28.13V15.617C7 13.8014 8.05116 12.1635 9.67217 11.3979L10.0281 11.2474L26.3615 5.12243ZM36.0101 20.1346L25.2812 30.8635L21.1565 26.7386C20.2453 25.8274 18.7679 25.8274 17.8567 26.7386C16.9454 27.6498 16.9454 29.1272 17.8567 30.0384L23.4663 35.6482C24.4687 36.6506 26.0939 36.6506 27.0963 35.6482L39.3099 23.4344C40.2213 22.5231 40.2213 21.0458 39.3099 20.1346C38.3987 19.2233 36.9215 19.2233 36.0101 20.1346Z" fill="black"/>
</g>
<defs>
<clipPath id="clip0_15_229">
<rect width="56" height="56" fill="white"/>
</clipPath>
</defs>
</svg>
